PathFileType	4	(X/Y/Z)	C:/Users/beibeiliu/ov580/test_trc/User1\sequence.34_training_dense_right.trc
DataRate	CameraRate	NumFrames	NumMarkers	Units	OrigDataRate	OrigDataStartFrame	OrigNumFrames
120	120	8	19	mm	120	59	234
Frame#	Time	ThumbCMC			ThumbMCP			ThumbIP			ThumbTip			IndexMCP			IndexPIP			IndexTip			MiddleMCP			MiddlePIP			MiddleTip			RingMCP			RingPIP			RingTip			PinkyMCP			PinkyPIP			PinkyTip			BackHand1			BackHand2			BackHand3	
		X0	Y0	Z0	X1	Y1	Z1	X2	Y2	Z2	X3	Y3	Z3	X4	Y4	Z4	X5	Y5	Z5	X6	Y6	Z6	X7	Y7	Z7	X8	Y8	Z8	X9	Y9	Z9	X10	Y10	Z10	X11	Y11	Z11	X12	Y12	Z12	X13	Y13	Z13	X14	Y14	Z14	X15	Y15	Z15	X16	Y16	Z16	X17	Y17	Z17	X18	Y18	Z18	
58	0.483333	213.052	-58.5	70.2576	206.808	-29.8117	48.5224	201.174	-16.4854	24.7952	184.164	-8.50544	4.70031	198.979	-87.8742	-4.25648	191.921	-80.3526	-36.3388	175.56	-56.9164	-48.6249	171.046	-101.763	-5.56927	153.883	-89.1967	-37.2019	142.174	-57.5324	-50.0727	147.413	-86.5319	2.88598	132.475	-54.4721	0.912202	141.746	-38.1979	25.7614	126.111	-82.939	26.0631	129.858	-53.2828	29.8956	152.428	-50.1122	54.8321	166.524	-110.693	60.1378	174.16	-112.118	95.1941	202.882	-99.2862	68.7484	
59	0.491667	212.384	-60.8725	72.7849	211.36	-30.591	49.5337	200.282	-21.8019	24.1786	189.91	-8.40003	7.28525	203.305	-88.4673	-3.83252	192.233	-83.409	-33.3259	174.747	-58.0816	-47.216	170.477	-101.904	-9.17736	157.193	-89.2969	-37.6962	143.864	-61.0513	-49.2433	143.877	-86.5389	2.55007	133.293	-53.3751	-0.368341	140.763	-38.3876	27.3703	126.229	-83.7413	26.4689	128.391	-52.8451	29.4294	151.81	-50.93	51.2082	166.203	-111.01	54.9881	172.541	-113.519	94.2725	201.184	-102.069	70.0275	
60	0.5	215.574	-60.5145	75.4354	209.238	-35.9519	50.5798	205.908	-21.2377	26.3958	194.819	-6.66029	5.60609	201.156	-92.9028	-5.20082	194.162	-82.6553	-36.079	180.313	-56.2299	-49.0296	173.885	-102.533	-6.26846	162.868	-89.8519	-36.8451	142.785	-56.4948	-49.647	142.838	-84.167	0.422261	135.66	-53.3991	-0.105882	143.242	-38.1157	29.1521	125.722	-82.4154	26.608	135.051	-52.69	29.2222	150.666	-49.4445	54.0342	164.089	-113.55	56.5285	170.296	-114.908	92.6305	200.423	-103.847	66.6556	
61	0.508333	214.568	-63.1956	72.2357	213.831	-33.4855	52.6683	209.088	-20.1829	26.2305	196.167	-10.7877	7.97545	203.562	-92.5864	-0.721832	192.053	-85.9554	-34.4827	183.814	-60.5871	-47.2344	170.085	-103.252	-4.67354	162.464	-89.249	-38.443	149.139	-58.5113	-50.1002	147.537	-84.3954	1.39423	138.707	-53.9941	-2.94491	144.061	-37.2322	26.9649	129.247	-79.6477	22.6908	131.432	-52.9996	28.1832	156.384	-53.0892	55.5886	162.641	-112.393	55.5364	168.594	-114.812	91.5399	202.35	-103.001	68.0012	
62	0.516667	216.285	-64.3096	73.9781	212.713	-36.443	52.0625	209.667	-22.448	24.0223	200.371	-9.48888	6.72189	200.956	-93.9901	-0.574236	193.178	-88.2213	-30.8634	184.872	-60.0864	-48.5569	170.377	-105.35	-9.98044	163.18	-90.7221	-37.3318	147.29	-57.4527	-49.4618	145.238	-86.2882	3.50968	141.987	-50.1572	-1.50107	147.896	-36.9595	31.176	126.684	-81.7698	25.0622	135.305	-51.9766	29.2769	157.232	-55.4088	53.903	163.86	-112.828	58.6017	166.604	-116.065	94.4672	198.935	-103.705	67.5246	
63	0.525	216.443	-64.225	73.3712	213.307	-37.3854	51.4071	212.59	-22.7507	27.161	201.927	-8.33495	5.1583	200.929	-94.4707	-1.00908	199.485	-85.9715	-34.0995	182.532	-59.6965	-47.3756	171.012	-104.398	-6.50581	163.162	-92.3573	-34.7417	147.176	-57.0861	-49.899	145.645	-86.6221	4.51498	139.461	-53.0294	-0.312242	146.957	-38.6165	27.888	127.868	-81.342	25.3987	135.913	-54.125	26.8119	156.069	-52.8285	54.0765	163.456	-114.698	55.9242	167.513	-114.619	95.1849	200.925	-103.126	68.3281	
64	0.533333	215.789	-65.4512	80.2937	215.969	-37.0438	51.2843	214.227	-22.4723	31.486	203.778	-10.5215	7.62584	206.89	-93.859	1.24392	200.594	-84.7152	-33.9225	185.764	-59.8045	-47.0909	175.935	-103.588	-6.83944	162.296	-91.0002	-34.6343	153.481	-59.5972	-49.6953	147.929	-85.8633	4.0395	140.475	-49.1169	1.53819	150.038	-37.476	26.8274	130.836	-80.1051	24.538	137.498	-51.4494	29.6139	156.017	-52.0824	56.0953	162.225	-113.922	56.4934	166.981	-115.831	94.7416	199.206	-104.423	71.7972	
65	0.541667	217.905	-65.5383	79.8547	214.254	-39.7776	55.4366	215.72	-25.1715	32.5904	207.093	-11.5905	12.4663	206.72	-94.2978	3.04181	197.499	-86.4797	-30.5086	188.417	-62.9911	-44.9428	172.164	-105.162	-7.22016	164.419	-91.3022	-33.1842	156.664	-60.8839	-48.0852	151.165	-83.3511	2.82112	146.254	-50.6859	0.0862529	155.18	-36.9101	29.9744	131.943	-77.8442	24.4646	138.835	-49.8621	32.7167	158.662	-54.0514	54.151	163.501	-113.442	60.6888	168.901	-113.568	96.9768	198.933	-107.641	70.7687	
